%FSLAX25Y25*%
%MOIN*%
G70*
G01*
G75*
G04 Layer_Color=65535*
%ADD10O,0.01772X0.08268*%
%ADD11O,0.08268X0.01772*%
%ADD12C,0.01000*%
%ADD13C,0.06000*%
%ADD14C,0.05000*%
%ADD15R,0.02047X0.02047*%
%ADD16R,0.02047X0.02047*%
%ADD17C,0.03000*%
%ADD18C,0.00984*%
%ADD19C,0.02362*%
%ADD20C,0.00787*%
%ADD21C,0.00700*%
%ADD22C,0.00800*%
%ADD23R,0.37500X0.15000*%
D12*
X-170000Y-115000D02*
Y115000D01*
Y-115000D02*
X160000D01*
Y115000D01*
X-170000D02*
X160000D01*
D17*
X120000Y101500D02*
G03*
X120000Y101500I-1500J0D01*
G01*
X84000D02*
G03*
X84000Y101500I-1500J0D01*
G01*
X-152000Y102500D02*
G03*
X-152000Y102500I-1500J0D01*
G01*
X-116000D02*
G03*
X-116000Y102500I-1500J0D01*
G01*
D18*
X35650Y29331D02*
G03*
X35650Y29331I-492J0D01*
G01*
D19*
X27677Y19685D02*
G03*
X27677Y19685I-1181J0D01*
G01*
D20*
X-40433Y23622D02*
X30433D01*
X-40433Y-23622D02*
X30433D01*
Y23622D01*
X-40433Y-23622D02*
Y23622D01*
D21*
X118199Y110199D02*
X117200D01*
X117700D01*
Y107700D01*
X117200Y107200D01*
X116700D01*
X116200Y107700D01*
X121198Y110199D02*
X119199D01*
Y108700D01*
X120199Y109199D01*
X120699D01*
X121198Y108700D01*
Y107700D01*
X120699Y107200D01*
X119699D01*
X119199Y107700D01*
X-111301Y106199D02*
X-112300D01*
X-111801D01*
Y103700D01*
X-112300Y103200D01*
X-112800D01*
X-113300Y103700D01*
X-108801Y103200D02*
Y106199D01*
X-110301Y104700D01*
X-108302D01*
X82199Y110199D02*
X81200D01*
X81700D01*
Y107700D01*
X81200Y107200D01*
X80700D01*
X80200Y107700D01*
X83199Y109699D02*
X83699Y110199D01*
X84699D01*
X85198Y109699D01*
Y109199D01*
X84699Y108700D01*
X84199D01*
X84699D01*
X85198Y108200D01*
Y107700D01*
X84699Y107200D01*
X83699D01*
X83199Y107700D01*
X-153801Y111199D02*
X-154800D01*
X-154300D01*
Y108700D01*
X-154800Y108200D01*
X-155300D01*
X-155800Y108700D01*
X-150802Y108200D02*
X-152801D01*
X-150802Y110199D01*
Y110699D01*
X-151301Y111199D01*
X-152301D01*
X-152801Y110699D01*
X-50800Y40299D02*
Y37800D01*
X-50300Y37300D01*
X-49301D01*
X-48801Y37800D01*
Y40299D01*
X-47801Y37300D02*
X-46801D01*
X-47301D01*
Y40299D01*
X-47801Y39799D01*
D22*
X-61000Y-102500D02*
Y-98501D01*
X-59667Y-99834D01*
X-58334Y-98501D01*
Y-102500D01*
X-57001D02*
Y-99834D01*
X-55668Y-98501D01*
X-54335Y-99834D01*
Y-102500D01*
Y-100501D01*
X-57001D01*
X-50337Y-99168D02*
X-51003Y-98501D01*
X-52336D01*
X-53003Y-99168D01*
Y-101834D01*
X-52336Y-102500D01*
X-51003D01*
X-50337Y-101834D01*
X-49004Y-98501D02*
Y-102500D01*
Y-100501D01*
X-46338D01*
Y-98501D01*
Y-102500D01*
X-45005Y-98501D02*
X-42339Y-102500D01*
Y-98501D02*
X-45005Y-102500D01*
X-39007Y-98501D02*
X-40340D01*
X-41006Y-99168D01*
Y-101834D01*
X-40340Y-102500D01*
X-39007D01*
X-38341Y-101834D01*
Y-99168D01*
X-39007Y-98501D01*
X-34342Y-102500D02*
X-37008D01*
X-34342Y-99834D01*
Y-99168D01*
X-35008Y-98501D01*
X-36341D01*
X-37008Y-99168D01*
X-33009Y-103166D02*
X-30343D01*
X-29010Y-98501D02*
Y-102500D01*
X-27011D01*
X-26344Y-101834D01*
Y-101167D01*
X-27011Y-100501D01*
X-29010D01*
X-27011D01*
X-26344Y-99834D01*
Y-99168D01*
X-27011Y-98501D01*
X-29010D01*
X-23012D02*
X-24345D01*
X-25012Y-99168D01*
Y-101834D01*
X-24345Y-102500D01*
X-23012D01*
X-22346Y-101834D01*
Y-99168D01*
X-23012Y-98501D01*
X-21013D02*
Y-102500D01*
X-19014D01*
X-18347Y-101834D01*
Y-101167D01*
X-19014Y-100501D01*
X-21013D01*
X-19014D01*
X-18347Y-99834D01*
Y-99168D01*
X-19014Y-98501D01*
X-21013D01*
X-17014Y-103166D02*
X-14348D01*
X-10350Y-99168D02*
X-11016Y-98501D01*
X-12349D01*
X-13015Y-99168D01*
Y-99834D01*
X-12349Y-100501D01*
X-11016D01*
X-10350Y-101167D01*
Y-101834D01*
X-11016Y-102500D01*
X-12349D01*
X-13015Y-101834D01*
X-9017Y-102500D02*
Y-98501D01*
X-7017D01*
X-6351Y-99168D01*
Y-100501D01*
X-7017Y-101167D01*
X-9017D01*
X-7684D02*
X-6351Y-102500D01*
X-5018D02*
Y-99834D01*
X-3685Y-98501D01*
X-2352Y-99834D01*
Y-102500D01*
Y-100501D01*
X-5018D01*
X-1019Y-102500D02*
Y-98501D01*
X313Y-99834D01*
X1647Y-98501D01*
Y-102500D01*
X2979Y-103166D02*
X5645D01*
X6978Y-102500D02*
Y-99834D01*
X8311Y-98501D01*
X9644Y-99834D01*
Y-102500D01*
Y-100501D01*
X6978D01*
X10977Y-99168D02*
X11643Y-98501D01*
X12976D01*
X13643Y-99168D01*
Y-101834D01*
X12976Y-102500D01*
X11643D01*
X10977Y-101834D01*
Y-99168D01*
X-61000Y-110000D02*
Y-107334D01*
X-59667Y-106001D01*
X-58334Y-107334D01*
Y-110000D01*
Y-108001D01*
X-61000D01*
X-57001Y-110000D02*
Y-109334D01*
X-56335D01*
Y-110000D01*
X-57001D01*
X-49670Y-106001D02*
Y-110000D01*
Y-108001D01*
X-47005D01*
Y-106001D01*
Y-110000D01*
X-45005D02*
X-43672D01*
X-43006Y-109334D01*
Y-108001D01*
X-43672Y-107334D01*
X-45005D01*
X-45672Y-108001D01*
Y-109334D01*
X-45005Y-110000D01*
X-41006D02*
X-39674D01*
X-39007Y-109334D01*
Y-108001D01*
X-39674Y-107334D01*
X-41006D01*
X-41673Y-108001D01*
Y-109334D01*
X-41006Y-110000D01*
X-35008Y-106001D02*
Y-110000D01*
X-37008D01*
X-37674Y-109334D01*
Y-108001D01*
X-37008Y-107334D01*
X-35008D01*
X-29677Y-108001D02*
X-27011D01*
X-19014Y-110000D02*
X-21679D01*
X-19014Y-107334D01*
Y-106668D01*
X-19680Y-106001D01*
X-21013D01*
X-21679Y-106668D01*
X-17681D02*
X-17014Y-106001D01*
X-15681D01*
X-15015Y-106668D01*
Y-109334D01*
X-15681Y-110000D01*
X-17014D01*
X-17681Y-109334D01*
Y-106668D01*
X-13682Y-110000D02*
X-12349D01*
X-13015D01*
Y-106001D01*
X-13682Y-106668D01*
X-10350D02*
X-9683Y-106001D01*
X-8350D01*
X-7684Y-106668D01*
Y-107334D01*
X-8350Y-108001D01*
X-9017D01*
X-8350D01*
X-7684Y-108667D01*
Y-109334D01*
X-8350Y-110000D01*
X-9683D01*
X-10350Y-109334D01*
D23*
X37750Y-105000D02*
D03*
M02*
