M48
;Layer_Color=9474304
;FILE_FORMAT=2:5
INCH,LZ
;TYPE=PLATED
T1F00S00C0.02800
T2F00S00C0.03500
%
T01
X-00375Y-00185
X-0026
X-00165
X-000628Y-001862
X0006516Y-0018616
X00155Y-0019
X0024429Y-0018629
X00265Y-0001
X0024429Y0018071
X0016Y0019
X0006516Y0018016
X-000372Y001822
X-0016516Y0017984
X-00255Y002
X-00375Y0018
Y-00013
X-0031Y00045
X-0051331Y00295
X-0005Y0039
X-00055Y-0039
X0055Y0
T02
X009Y-0096
X01
Y-0086
X009
Y-0076
X01
Y-0066
X009
X0126
Y-0076
Y-0086
Y-0096
X0136
Y-0086
Y-0076
Y-0066
X-01Y-0065
Y-0075
Y-0085
Y-0095
X-011
Y-0085
Y-0075
Y-0065
X-0136
Y-0075
Y-0085
Y-0095
X-0146
Y-0085
Y-0075
Y-0065
Y-0055
X-0136
Y-0045
X-0146
Y-0035
X-0136
Y-0025
X-0146
Y-0015
X-0136
Y-0005
X-0146
Y0005
X-0136
Y0015
X-0146
Y0025
X-0136
Y0035
X-0146
Y0045
X-0136
Y0055
X-0146
Y0065
X-0136
Y0075
X-0146
Y0085
X-0136
Y0095
X-0146
X-011
Y0085
Y0075
Y0065
Y0055
Y0045
Y0035
Y0025
Y0015
Y0005
Y-0005
Y-0015
Y-0025
Y-0035
Y-0045
Y-0055
X-01
Y-0045
Y-0035
Y-0025
Y-0015
Y-0005
Y0005
Y0015
Y0025
Y0035
Y0045
Y0055
Y0065
Y0075
Y0085
Y0095
X009Y0094
Y0084
Y0074
Y0064
Y0054
Y0044
Y0034
Y0024
Y0014
Y0004
Y-0006
Y-0016
Y-0026
Y-0036
Y-0046
Y-0056
X01
Y-0046
Y-0036
Y-0026
Y-0016
Y-0006
Y0004
Y0014
Y0024
Y0034
Y0044
Y0054
Y0064
Y0074
Y0084
Y0094
X0126
Y0084
Y0074
Y0064
Y0054
Y0044
Y0034
Y0024
Y0014
Y0004
Y-0006
Y-0016
Y-0026
Y-0036
Y-0046
Y-0056
X0136
Y-0046
Y-0036
Y-0026
Y-0016
Y-0006
Y0004
Y0014
Y0024
Y0034
Y0044
Y0054
Y0064
Y0074
Y0084
Y0094
M30
