%FSLAX25Y25*%
%MOIN*%
G70*
G01*
G75*
G04 Layer_Color=16711935*
%ADD10O,0.01772X0.08268*%
%ADD11O,0.08268X0.01772*%
%ADD12C,0.01000*%
%ADD13C,0.06000*%
%ADD14C,0.05000*%
%ADD15R,0.02047X0.02047*%
%ADD16R,0.02047X0.02047*%
%ADD17C,0.03000*%
%ADD18C,0.00984*%
%ADD19C,0.02362*%
%ADD20C,0.00787*%
%ADD21C,0.00700*%
%ADD22C,0.00800*%
%ADD23R,0.37500X0.15000*%
%ADD24O,0.02572X0.09068*%
%ADD25O,0.09068X0.02572*%
%ADD26C,0.06800*%
%ADD27C,0.05800*%
%ADD28R,0.02847X0.02847*%
%ADD29R,0.02847X0.02847*%
D12*
X-170000Y-115000D02*
Y115000D01*
Y-115000D02*
X160000D01*
Y115000D01*
X-170000D02*
X160000D01*
D26*
X136000Y-96000D02*
D03*
X126000D02*
D03*
X136000Y-86000D02*
D03*
X126000D02*
D03*
X136000Y-76000D02*
D03*
X126000D02*
D03*
X136000Y-66000D02*
D03*
X126000D02*
D03*
X136000Y-56000D02*
D03*
X126000D02*
D03*
X136000Y-46000D02*
D03*
X126000D02*
D03*
X136000Y-36000D02*
D03*
X126000D02*
D03*
X136000Y-26000D02*
D03*
X126000D02*
D03*
X136000Y-16000D02*
D03*
X126000D02*
D03*
X136000Y-6000D02*
D03*
X126000D02*
D03*
X136000Y4000D02*
D03*
X126000D02*
D03*
X136000Y14000D02*
D03*
X126000D02*
D03*
X136000Y24000D02*
D03*
X126000D02*
D03*
X136000Y34000D02*
D03*
X126000D02*
D03*
X136000Y44000D02*
D03*
X126000D02*
D03*
X136000Y54000D02*
D03*
X126000D02*
D03*
X136000Y64000D02*
D03*
X126000D02*
D03*
X136000Y74000D02*
D03*
X126000D02*
D03*
X136000Y84000D02*
D03*
X126000D02*
D03*
X136000Y94000D02*
D03*
X126000D02*
D03*
X100000Y-96000D02*
D03*
X90000D02*
D03*
X100000Y-86000D02*
D03*
X90000D02*
D03*
X100000Y-76000D02*
D03*
X90000D02*
D03*
X100000Y-66000D02*
D03*
X90000D02*
D03*
X100000Y-56000D02*
D03*
X90000D02*
D03*
X100000Y-46000D02*
D03*
X90000D02*
D03*
X100000Y-36000D02*
D03*
X90000D02*
D03*
X100000Y-26000D02*
D03*
X90000D02*
D03*
X100000Y-16000D02*
D03*
X90000D02*
D03*
X100000Y-6000D02*
D03*
X90000D02*
D03*
X100000Y4000D02*
D03*
X90000D02*
D03*
X100000Y14000D02*
D03*
X90000D02*
D03*
X100000Y24000D02*
D03*
X90000D02*
D03*
X100000Y34000D02*
D03*
X90000D02*
D03*
X100000Y44000D02*
D03*
X90000D02*
D03*
X100000Y54000D02*
D03*
X90000D02*
D03*
X100000Y64000D02*
D03*
X90000D02*
D03*
X100000Y74000D02*
D03*
X90000D02*
D03*
X100000Y84000D02*
D03*
X90000D02*
D03*
X100000Y94000D02*
D03*
X90000D02*
D03*
X-136000Y-95000D02*
D03*
X-146000D02*
D03*
X-136000Y-85000D02*
D03*
X-146000D02*
D03*
X-136000Y-75000D02*
D03*
X-146000D02*
D03*
X-136000Y-65000D02*
D03*
X-146000D02*
D03*
X-136000Y-55000D02*
D03*
X-146000D02*
D03*
X-136000Y-45000D02*
D03*
X-146000D02*
D03*
X-136000Y-35000D02*
D03*
X-146000D02*
D03*
X-136000Y-25000D02*
D03*
X-146000D02*
D03*
X-136000Y-15000D02*
D03*
X-146000D02*
D03*
X-136000Y-5000D02*
D03*
X-146000D02*
D03*
X-136000Y5000D02*
D03*
X-146000D02*
D03*
X-136000Y15000D02*
D03*
X-146000D02*
D03*
X-136000Y25000D02*
D03*
X-146000D02*
D03*
X-136000Y35000D02*
D03*
X-146000D02*
D03*
X-136000Y45000D02*
D03*
X-146000D02*
D03*
X-136000Y55000D02*
D03*
X-146000D02*
D03*
X-136000Y65000D02*
D03*
X-146000D02*
D03*
X-136000Y75000D02*
D03*
X-146000D02*
D03*
X-136000Y85000D02*
D03*
X-146000D02*
D03*
X-136000Y95000D02*
D03*
X-146000D02*
D03*
X-100000Y-95000D02*
D03*
X-110000D02*
D03*
X-100000Y-85000D02*
D03*
X-110000D02*
D03*
X-100000Y-75000D02*
D03*
X-110000D02*
D03*
X-100000Y-65000D02*
D03*
X-110000D02*
D03*
X-100000Y-55000D02*
D03*
X-110000D02*
D03*
X-100000Y-45000D02*
D03*
X-110000D02*
D03*
X-100000Y-35000D02*
D03*
X-110000D02*
D03*
X-100000Y-25000D02*
D03*
X-110000D02*
D03*
X-100000Y-15000D02*
D03*
X-110000D02*
D03*
X-100000Y-5000D02*
D03*
X-110000D02*
D03*
X-100000Y5000D02*
D03*
X-110000D02*
D03*
X-100000Y15000D02*
D03*
X-110000D02*
D03*
X-100000Y25000D02*
D03*
X-110000D02*
D03*
X-100000Y35000D02*
D03*
X-110000D02*
D03*
X-100000Y45000D02*
D03*
X-110000D02*
D03*
X-100000Y55000D02*
D03*
X-110000D02*
D03*
X-100000Y65000D02*
D03*
X-110000D02*
D03*
X-100000Y75000D02*
D03*
X-110000D02*
D03*
X-100000Y85000D02*
D03*
X-110000D02*
D03*
X-100000Y95000D02*
D03*
X-110000D02*
D03*
D27*
X-37500Y-18500D02*
D03*
Y18000D02*
D03*
Y-1300D02*
D03*
X-16516Y17984D02*
D03*
X-3720Y18220D02*
D03*
X6516Y18016D02*
D03*
X24429Y18071D02*
D03*
X-16500Y-18500D02*
D03*
X-6280Y-18620D02*
D03*
X6516Y-18616D02*
D03*
X24429Y-18629D02*
D03*
X26500Y-1000D02*
D03*
X-31000Y4500D02*
D03*
X-26000Y-18500D02*
D03*
X-5500Y-39000D02*
D03*
X15500Y-19000D02*
D03*
X55000Y0D02*
D03*
X16000Y19000D02*
D03*
X-5000Y39000D02*
D03*
X-25500Y20000D02*
D03*
X-51331Y29500D02*
D03*
D28*
X-55925Y-1000D02*
D03*
X-59075D02*
D03*
X-37075Y12500D02*
D03*
X-33925D02*
D03*
X-16925D02*
D03*
X-20075D02*
D03*
X-4425D02*
D03*
X-7575D02*
D03*
X7425D02*
D03*
X10575D02*
D03*
X23575D02*
D03*
X20425D02*
D03*
X-36575Y-13000D02*
D03*
X-33425D02*
D03*
X-17425D02*
D03*
X-20575D02*
D03*
X-6925D02*
D03*
X-10075D02*
D03*
X7425D02*
D03*
X10575D02*
D03*
X24075D02*
D03*
X20925D02*
D03*
D29*
X28000Y3925D02*
D03*
Y7075D02*
D03*
M02*
